:SAMPLES-PER-SECOND 30
:FULLY-SPECIFIED
:DEGREES
1106
root  -39.9163 29.7004 0.60339 123.512 -5.93729 87.09
Spine  5.63407 9.50321 18.0419
Spine1  2.38761 -8.96214 -9.25335
Neck  3.97569e-016 0 -2.38542e-015
Head  -1.19158 -10.2029 -26.2011
R_Clavicle  0.416076 -21.4101 1.40352
R_UpperArm  44.351 8.30886 32.7815
R_Forearm  3.53017 -45.9295 34.5625
R_Hand  -1.54574 11.6573 -22.7331
L_Clavicle  -0.792258 19.8514 -6.35928
L_UpperArm  -9.0333 11.3043 28.6318
L_Forearm  0.485433 34.814 38.0962
L_Hand  0.534565 2.11816 7.95562
L_Thigh  -6.02016 23.929 14.8583
L_Calf  -10.8246 -2.46161 17.8234
L_Foot  -4.17785 -5.37959 -19.331
L_Toe0  -4.81536 0.294507 -3.28648
R_Thigh  4.0284 -26.9885 -10.1405
R_Calf  13.2265 6.34742 20.1716
R_Foot  3.0551 4.28639 -27.051
R_Toe0  13.6477 -2.90605 -7.95394
1107
root  -39.5639 31.1546 1.56266 124.926 -4.75296 86.9584
Spine  3.92904 6.91259 12.9609
Spine1  1.51422 -2.55059 -9.48038
Neck  3.97569e-016 0 -2.38542e-015
Head  0.827752 -8.80608 -26.5206
R_Clavicle  0.42263 -22.1591 2.36854
R_UpperArm  48.0859 -1.09739 38.9265
R_Forearm  6.07787 -45.0099 37.1963
R_Hand  -0.97931 10.2291 -19.0515
L_Clavicle  -0.763203 19.6594 -6.00655
L_UpperArm  -9.68183 12.6675 30.9816
L_Forearm  1.60965 34.2748 38.1208
L_Hand  0.496553 1.80149 7.7483
L_Thigh  -10.611 20.4297 10.0435
L_Calf  -8.1917 -2.44688 17.7396
L_Foot  -3.22775 -2.95622 -14.4992
L_Toe0  -3.24052 0.222727 -2.80965
R_Thigh  13.0079 -22.6534 -12.8321
R_Calf  15.3425 7.05937 22.5933
R_Foot  3.23282 5.44511 -26.8646
R_Toe0  13.8763 -2.76321 -8.40002
1108
root  -39.1992 32.2471 2.46274 125.852 -4.72681 87.255
Spine  1.7381 3.94096 8.06673
Spine1  0.0712209 1.98384 -10.0129
Neck  3.97569e-016 0 -2.38542e-015
Head  2.42865 -6.66807 -27.5541
R_Clavicle  0.424447 -22.0539 3.36
R_UpperArm  51.8512 -9.512 45.4646
R_Forearm  12.1069 -43.9131 40.4652
R_Hand  -0.479734 9.05436 -15.2777
L_Clavicle  -0.722905 19.4179 -5.38127
L_UpperArm  -6.93763 12.6705 34.2474
L_Forearm  -1.93197 32.6816 37.4549
L_Hand  0.574872 2.53688 8.18142
L_Thigh  -13.687 14.9176 4.84635
L_Calf  -1.77045 -2.41433 17.5353
L_Foot  -2.07439 -4.0283 -6.44596
L_Toe0  1.7329 -0.0734469 -2.71584
R_Thigh  17.777 -17.4771 -13.7929
R_Calf  9.55065 7.23894 23.2072
R_Foot  3.41437 10.5795 -19.3327
R_Toe0  12.3111 -2.3765 -8.00445
1109
root  -38.8091 33.0283 3.32863 126.278 -4.81845 87.1157
Spine  -0.120075 2.22973 3.87336
Spine1  -1.53957 4.71467 -11.2682
Neck  3.97569e-016 0 -2.38542e-015
Head  4.04734 -4.13367 -28.9613
R_Clavicle  0.440575 -21.3082 4.27009
R_UpperArm  54.1163 -16.3558 53.2283
R_Forearm  20.573 -42.4933 42.9723
R_Hand  -0.0940633 8.5291 -12.2238
L_Clavicle  -0.675168 19.1703 -4.42987
L_UpperArm  -3.72408 11.8465 37.4277
L_Forearm  -6.96857 31.2964 36.8506
L_Hand  0.615074 3.13198 8.17529
L_Thigh  -15.173 8.9444 -0.478247
L_Calf  5.73471 -2.63713 19.2839
L_Foot  -1.00983 -4.90286 1.29284
L_Toe0  4.13293 -0.178861 -3.14188
R_Thigh  18.3697 -10.4569 -13.7212
R_Calf  -0.127806 7.64283 24.6022
R_Foot  3.86062 13.7202 -9.06158
R_Toe0  0.570197 -0.367025 -6.57743
1110
root  -38.4376 33.5057 4.17549 126.388 -4.41284 86.5595
Spine  -1.50535 1.83408 0.0143802
Spine1  -3.01623 6.36763 -12.5782
Neck  3.97569e-016 0 -2.38542e-015
Head  5.75473 -1.35487 -30.5794
R_Clavicle  0.488924 -19.653 4.91985
R_UpperArm  53.8966 -21.6143 62.1103
R_Forearm  29.1092 -41.0556 44.083
R_Hand  0.189563 8.6838 -10.2184
L_Clavicle  -0.601345 18.3148 -3.7755
L_UpperArm  -2.48616 11.2854 39.981
L_Forearm  -10.0451 30.5356 36.5865
L_Hand  0.585503 3.37476 7.59406
L_Thigh  -14.033 3.38039 -5.45198
L_Calf  9.58952 -3.04622 22.509
L_Foot  0.434306 -2.34419 5.58874
L_Toe0  3.47634 -0.123864 -3.48148
R_Thigh  15.1103 -2.04422 -13.693
R_Calf  -5.78448 8.85806 28.9009
R_Foot  3.08941 10.3789 -2.81156
R_Toe0  -8.01165 0.969444 -8.9752
1111
root  -38.0576 33.6133 4.99436 126.11 -4.16977 86.8134
Spine  -2.77097 0.975711 -3.78374
Spine1  -4.27816 7.21053 -13.4522
Neck  3.97569e-016 0 -2.38542e-015
Head  6.94847 0.938479 -31.4902
R_Clavicle  0.567217 -17.2332 5.28095
R_UpperArm  51.8726 -25.3119 71.6792
R_Forearm  37.3919 -39.3939 43.5646
R_Hand  0.363679 10.3204 -10.1114
L_Clavicle  -0.466388 16.2003 -3.74229
L_UpperArm  -3.06035 11.5089 42.0225
L_Forearm  -10.4993 30.0797 36.5159
L_Hand  0.540734 3.29834 7.08072
L_Thigh  -10.5082 -1.95342 -10.0001
L_Calf  5.86721 -3.46681 25.9228
L_Foot  2.55118 3.71832 6.87784
L_Toe0  2.94001 -0.075008 -3.9681
R_Thigh  7.64124 4.63944 -14.3202
R_Calf  -2.05677 10.2072 33.9247
R_Foot  0.534618 1.39475 -1.14978
R_Toe0  -5.39026 0.384072 -10.14
